<?xml version="1.0" encoding="iso-8859-1"?>
<!-- Generator: Adobe Illustrator 18.1.1, SVG Export Plug-In . SVG Version: 6.00 Build 0)  -->
<svg version="1.1" id="Capa_1" xmlns="http://www.w3.org/2000/svg" xmlns:xlink="http://www.w3.org/1999/xlink" x="0px" y="0px"
	 viewBox="0 0 76 76" style="enable-background:new 0 0 76 76;" xml:space="preserve" fill="#e91e63">
<g id="_x37_7_Essential_Icons_8_">
	<path id="Cancel" d="M38,0C17,0,0,17,0,38s17,38,38,38s38-17,38-38S59,0,38,0z M38,72C19.2,72,4,56.8,4,38S19.2,4,38,4
		s34,15.2,34,34S56.8,72,38,72z M40.8,38l12.6-12.6c0.8-0.8,0.8-2,0-2.8s-2-0.8-2.8,0L38,35.2L25.4,22.6c-0.8-0.8-2-0.8-2.8,0
		s-0.8,2,0,2.8L35.2,38L22.6,50.6c-0.8,0.8-0.8,2,0,2.8s2,0.8,2.8,0L38,40.8l12.6,12.6c0.8,0.8,2,0.8,2.8,0s0.8-2,0-2.8L40.8,38z"/>
</g>
<g>
</g>
<g>
</g>
<g>
</g>
<g>
</g>
<g>
</g>
<g>
</g>
<g>
</g>
<g>
</g>
<g>
</g>
<g>
</g>
<g>
</g>
<g>
</g>
<g>
</g>
<g>
</g>
<g>
</g>
</svg>
