<?xml version="1.0" encoding="iso-8859-1"?>
<!-- Generator: Adobe Illustrator 18.1.1, SVG Export Plug-In . SVG Version: 6.00 Build 0)  -->
<svg version="1.1" id="Capa_1" xmlns="http://www.w3.org/2000/svg" xmlns:xlink="http://www.w3.org/1999/xlink" x="0px" y="0px"
	 viewBox="0 0 76.014 76.014" style="enable-background:new 0 0 76.014 76.014;" xml:space="preserve" fill="#e91e63">
<g id="_x37_7_Essential_Icons_56_">
	<path id="Search" d="M75.401,65.707l-18.9-18.9c3.2-5,4.7-10.8,4.7-16.5c0-16.9-13.5-30.3-30.4-30.3c-17.6,0-30.9,13.9-30.8,30.6
		s13.6,30.6,30.8,30.6c5.8,0,11.3-1.6,16.1-4.6l18.9,18.8c0.8,0.8,2,0.8,2.8,0l6.9-6.9C76.201,67.707,76.201,66.507,75.401,65.707z
		 M30.801,57.207c-15,0-26.7-12.1-26.8-26.7c-0.1-14.4,11.4-26.6,26.8-26.6c15,0,26.3,11.7,26.4,26.3
		C57.301,45.807,45.001,57.207,30.801,57.207z M67.101,71.207l-17-17c0.6-0.5,3.4-3.3,4.1-4.1l17,17L67.101,71.207z"/>
</g>
<g>
</g>
<g>
</g>
<g>
</g>
<g>
</g>
<g>
</g>
<g>
</g>
<g>
</g>
<g>
</g>
<g>
</g>
<g>
</g>
<g>
</g>
<g>
</g>
<g>
</g>
<g>
</g>
<g>
</g>
</svg>
